{
    "asset" : {
        "generator" : "Khronos glTF Blender I/O v1.3.48",
        "version" : "2.0"
    },
    "scene" : 0,
    "scenes" : [
        {
            "name" : "Scene",
            "nodes" : [
                0,
                1,
                2
            ]
        }
    ],
    "nodes" : [
        {
            "mesh" : 0,
            "name" : "Cube.010",
            "rotation" : [
                0,
                0.7071067690849304,
                0,
                0.7071068286895752
            ],
            "translation" : [
                -0.05202700197696686,
                -2.52184796333313,
                0.019384734332561493
            ]
        },
        {
            "mesh" : 1,
            "name" : "Cube.001",
            "rotation" : [
                0,
                0.7071067690849304,
                0,
                0.7071068286895752
            ],
            "scale" : [
                0.1269681453704834,
                2.7054755687713623,
                0.2196701020002365
            ],
            "translation" : [
                1.29304838180542,
                -0.9694384336471558,
                -4.71026086807251
            ]
        },
        {
            "mesh" : 2,
            "name" : "Cube",
            "scale" : [
                0.6163488626480103,
                0.4149731993675232,
                0.6163488626480103
            ],
            "translation" : [
                -0.04914289340376854,
                -3.126760482788086,
                0
            ]
        }
    ],
    "materials" : [
        {
            "doubleSided" : true,
            "emissiveFactor" : [
                0,
                0,
                0
            ],
            "name" : "Material",
            "pbrMetallicRoughness" : {
                "baseColorFactor" : [
                    0.432597815990448,
                    0.432597815990448,
                    0.432597815990448,
                    1
                ],
                "metallicFactor" : 1,
                "roughnessFactor" : 0.2590909004211426
            }
        },
        {
            "doubleSided" : true,
            "emissiveFactor" : [
                0,
                0,
                0
            ],
            "name" : "Material.001",
            "pbrMetallicRoughness" : {
                "baseColorFactor" : [
                    0.24289274215698242,
                    0.12964674830436707,
                    0.07120509445667267,
                    1
                ],
                "metallicFactor" : 0,
                "roughnessFactor" : 0.5909091234207153
            }
        },
        {
            "doubleSided" : true,
            "emissiveFactor" : [
                0,
                0,
                0
            ],
            "name" : "Material.002",
            "pbrMetallicRoughness" : {
                "baseColorFactor" : [
                    0.015535426326096058,
                    0.17529839277267456,
                    0.041243813931941986,
                    1
                ],
                "metallicFactor" : 0,
                "roughnessFactor" : 0.5363636612892151
            }
        }
    ],
    "meshes" : [
        {
            "name" : "Cube.010",
            "primitives" : [
                {
                    "attributes" : {
                        "POSITION" : 0,
                        "NORMAL" : 1,
                        "TEXCOORD_0" : 2
                    },
                    "indices" : 3,
                    "material" : 0
                }
            ]
        },
        {
            "name" : "Cube.013",
            "primitives" : [
                {
                    "attributes" : {
                        "POSITION" : 4,
                        "NORMAL" : 5,
                        "TEXCOORD_0" : 6
                    },
                    "indices" : 7,
                    "material" : 1
                }
            ]
        },
        {
            "name" : "Cube.027",
            "primitives" : [
                {
                    "attributes" : {
                        "POSITION" : 8,
                        "NORMAL" : 9,
                        "TEXCOORD_0" : 10
                    },
                    "indices" : 11,
                    "material" : 2
                }
            ]
        }
    ],
    "accessors" : [
        {
            "bufferView" : 0,
            "componentType" : 5126,
            "count" : 2117,
            "max" : [
                1.0000001192092896,
                0.28966912627220154,
                1.0000001192092896
            ],
            "min" : [
                -1.0000001192092896,
                -1.0000001192092896,
                -1.0000001192092896
            ],
            "type" : "VEC3"
        },
        {
            "bufferView" : 1,
            "componentType" : 5126,
            "count" : 2117,
            "type" : "VEC3"
        },
        {
            "bufferView" : 2,
            "componentType" : 5126,
            "count" : 2117,
            "type" : "VEC2"
        },
        {
            "bufferView" : 3,
            "componentType" : 5123,
            "count" : 10752,
            "type" : "SCALAR"
        },
        {
            "bufferView" : 4,
            "componentType" : 5126,
            "count" : 4340,
            "max" : [
                2.033397674560547,
                1.2698982954025269,
                15.456281661987305
            ],
            "min" : [
                -76.72651672363281,
                -1.0318814516067505,
                -27.47640037536621
            ],
            "type" : "VEC3"
        },
        {
            "bufferView" : 5,
            "componentType" : 5126,
            "count" : 4340,
            "type" : "VEC3"
        },
        {
            "bufferView" : 6,
            "componentType" : 5126,
            "count" : 4340,
            "type" : "VEC2"
        },
        {
            "bufferView" : 7,
            "componentType" : 5123,
            "count" : 18240,
            "type" : "SCALAR"
        },
        {
            "bufferView" : 8,
            "componentType" : 5126,
            "count" : 24,
            "max" : [
                1,
                1,
                1
            ],
            "min" : [
                -1,
                -1,
                -1
            ],
            "type" : "VEC3"
        },
        {
            "bufferView" : 9,
            "componentType" : 5126,
            "count" : 24,
            "type" : "VEC3"
        },
        {
            "bufferView" : 10,
            "componentType" : 5126,
            "count" : 24,
            "type" : "VEC2"
        },
        {
            "bufferView" : 11,
            "componentType" : 5123,
            "count" : 36,
            "type" : "SCALAR"
        }
    ],
    "bufferViews" : [
        {
            "buffer" : 0,
            "byteLength" : 25404,
            "byteOffset" : 0
        },
        {
            "buffer" : 0,
            "byteLength" : 25404,
            "byteOffset" : 25404
        },
        {
            "buffer" : 0,
            "byteLength" : 16936,
            "byteOffset" : 50808
        },
        {
            "buffer" : 0,
            "byteLength" : 21504,
            "byteOffset" : 67744
        },
        {
            "buffer" : 0,
            "byteLength" : 52080,
            "byteOffset" : 89248
        },
        {
            "buffer" : 0,
            "byteLength" : 52080,
            "byteOffset" : 141328
        },
        {
            "buffer" : 0,
            "byteLength" : 34720,
            "byteOffset" : 193408
        },
        {
            "buffer" : 0,
            "byteLength" : 36480,
            "byteOffset" : 228128
        },
        {
            "buffer" : 0,
            "byteLength" : 288,
            "byteOffset" : 264608
        },
        {
            "buffer" : 0,
            "byteLength" : 288,
            "byteOffset" : 264896
        },
        {
            "buffer" : 0,
            "byteLength" : 192,
            "byteOffset" : 265184
        },
        {
            "buffer" : 0,
            "byteLength" : 72,
            "byteOffset" : 265376
        }
    ],
    "buffers" : [
        {
            "byteLength" : 265448,
            "uri" : "data:application/octet-stream;base64,"
        }
    ]
}
