{
    "asset" : {
        "generator" : "Khronos glTF Blender I/O v1.5.17",
        "version" : "2.0"
    },
    "scene" : 0,
    "scenes" : [
        {
            "extras" : {
                "blosm" : {
                    "defaultLevels" : [
                        {
                            "levels" : 4,
                            "weight" : 10
                        },
                        {
                            "levels" : 5,
                            "weight" : 40
                        },
                        {
                            "levels" : 6,
                            "weight" : 10
                        }
                    ]
                },
                "b_settings" : 1,
                "b_cubemap" : 1,
                "b_camera_cube" : 1,
                "b_show_env_sky" : 1,
                "b_cubemap_background" : 1,
                "b_interactive" : 1,
                "b_player" : 1,
                "b_raycast" : 1,
                "b_renderer" : 1,
                "b_cast_shadows" : 1,
                "b_bake_lightmap" : 0,
                "b_export" : 1,
                "b_aa" : 1,
                "b_colorManagement" : 1,
                "b_physicallyCorrectLights" : 1,
                "s_cubemap_path" : "Downloads/syferfontein_1d_clear_4k",
                "s_toggle_object" : "{\"1\": \"Cube\"}",
                "s_output" : "exporting...",
                "s_showhide_object" : "Suzanne",
                "s_project_name" : "aframe-prj",
                "export_path" : "K:\\Web_VR"
            },
            "name" : "Scene",
            "nodes" : [
                0
            ]
        }
    ],
    "nodes" : [
        {
            "mesh" : 0,
            "name" : "Grid"
        }
    ],
    "materials" : [
        {
            "doubleSided" : true,
            "name" : "Water.001",
            "normalTexture" : {
                "index" : 0
            },
            "pbrMetallicRoughness" : {
                "baseColorTexture" : {
                    "index" : 1
                },
                "metallicFactor" : 0,
                "roughnessFactor" : 0.09090910851955414
            }
        }
    ],
    "meshes" : [
        {
            "name" : "Grid.001",
            "primitives" : [
                {
                    "attributes" : {
                        "POSITION" : 0,
                        "NORMAL" : 1,
                        "TANGENT" : 2,
                        "TEXCOORD_0" : 3
                    },
                    "indices" : 4,
                    "material" : 0
                }
            ]
        }
    ],
    "textures" : [
        {
            "sampler" : 0,
            "source" : 0
        },
        {
            "sampler" : 0,
            "source" : 1
        }
    ],
    "images" : [
        {
            "bufferView" : 5,
            "mimeType" : "image/png",
            "name" : "Water_Normal"
        },
        {
            "bufferView" : 6,
            "mimeType" : "image/jpeg",
            "name" : "TexturesCom_WaterPlain0012_1_seamless_S"
        }
    ],
    "accessors" : [
        {
            "bufferView" : 0,
            "componentType" : 5126,
            "count" : 4667,
            "max" : [
                53.15541458129883,
                3.2451114654541016,
                50.12129211425781
            ],
            "min" : [
                -47.15443801879883,
                -2.5757575035095215,
                -50.39853286743164
            ],
            "type" : "VEC3"
        },
        {
            "bufferView" : 1,
            "componentType" : 5126,
            "count" : 4667,
            "type" : "VEC3"
        },
        {
            "bufferView" : 2,
            "componentType" : 5126,
            "count" : 4667,
            "type" : "VEC4"
        },
        {
            "bufferView" : 3,
            "componentType" : 5126,
            "count" : 4667,
            "type" : "VEC2"
        },
        {
            "bufferView" : 4,
            "componentType" : 5123,
            "count" : 23814,
            "type" : "SCALAR"
        }
    ],
    "bufferViews" : [
        {
            "buffer" : 0,
            "byteLength" : 56004,
            "byteOffset" : 0
        },
        {
            "buffer" : 0,
            "byteLength" : 56004,
            "byteOffset" : 56004
        },
        {
            "buffer" : 0,
            "byteLength" : 74672,
            "byteOffset" : 112008
        },
        {
            "buffer" : 0,
            "byteLength" : 37336,
            "byteOffset" : 186680
        },
        {
            "buffer" : 0,
            "byteLength" : 47628,
            "byteOffset" : 224016
        },
        {
            "buffer" : 0,
            "byteLength" : 364254,
            "byteOffset" : 271644
        },
        {
            "buffer" : 0,
            "byteLength" : 1158460,
            "byteOffset" : 635900
        }
    ],
    "samplers" : [
        {
            "magFilter" : 9729,
            "minFilter" : 9987
        }
    ],
    "buffers" : [
        {
            "byteLength" : 1794360,
            "uri" : "data:application/octet-stream;base64,"
        }
    ]
}
