{
    "asset" : {
        "generator" : "Khronos glTF Blender I/O v1.5.17",
        "version" : "2.0"
    },
    "scene" : 0,
    "scenes" : [
        {
            "extras" : {
                "blosm" : {
                    "defaultLevels" : [
                        {
                            "levels" : 4,
                            "weight" : 10
                        },
                        {
                            "levels" : 5,
                            "weight" : 40
                        },
                        {
                            "levels" : 6,
                            "weight" : 10
                        }
                    ]
                },
                "b_settings" : 1,
                "b_cubemap" : 1,
                "b_camera_cube" : 1,
                "b_show_env_sky" : 1,
                "b_cubemap_background" : 1,
                "b_interactive" : 1,
                "b_player" : 1,
                "b_raycast" : 1,
                "b_renderer" : 1,
                "b_cast_shadows" : 1,
                "b_bake_lightmap" : 0,
                "b_export" : 1,
                "b_aa" : 1,
                "b_colorManagement" : 1,
                "b_physicallyCorrectLights" : 1,
                "s_cubemap_path" : "Downloads/syferfontein_1d_clear_4k",
                "s_toggle_object" : "{\"1\": \"Cube\"}",
                "s_output" : "exporting...",
                "s_showhide_object" : "Suzanne",
                "s_project_name" : "aframe-prj",
                "export_path" : "K:\\Web_VR"
            },
            "name" : "Scene",
            "nodes" : [
                0
            ]
        }
    ],
    "nodes" : [
        {
            "mesh" : 0,
            "name" : "Suzanne"
        }
    ],
    "meshes" : [
        {
            "name" : "Suzanne",
            "primitives" : [
                {
                    "attributes" : {
                        "POSITION" : 0,
                        "NORMAL" : 1,
                        "TANGENT" : 2,
                        "TEXCOORD_0" : 3
                    },
                    "indices" : 4
                }
            ]
        }
    ],
    "accessors" : [
        {
            "bufferView" : 0,
            "componentType" : 5126,
            "count" : 1966,
            "max" : [
                1.3671875,
                0.9162968993186951,
                0.5249472260475159
            ],
            "min" : [
                -1.3671875,
                -1.0524530410766602,
                -1.178177833557129
            ],
            "type" : "VEC3"
        },
        {
            "bufferView" : 1,
            "componentType" : 5126,
            "count" : 1966,
            "type" : "VEC3"
        },
        {
            "bufferView" : 2,
            "componentType" : 5126,
            "count" : 1966,
            "type" : "VEC4"
        },
        {
            "bufferView" : 3,
            "componentType" : 5126,
            "count" : 1966,
            "type" : "VEC2"
        },
        {
            "bufferView" : 4,
            "componentType" : 5123,
            "count" : 2904,
            "type" : "SCALAR"
        }
    ],
    "bufferViews" : [
        {
            "buffer" : 0,
            "byteLength" : 23592,
            "byteOffset" : 0
        },
        {
            "buffer" : 0,
            "byteLength" : 23592,
            "byteOffset" : 23592
        },
        {
            "buffer" : 0,
            "byteLength" : 31456,
            "byteOffset" : 47184
        },
        {
            "buffer" : 0,
            "byteLength" : 15728,
            "byteOffset" : 78640
        },
        {
            "buffer" : 0,
            "byteLength" : 5808,
            "byteOffset" : 94368
        }
    ],
    "buffers" : [
        {
            "byteLength" : 100176,
            "uri" : "data:application/octet-stream;base64,"
        }
    ]
}
