{
    "asset" : {
        "generator" : "Khronos glTF Blender I/O v1.5.17",
        "version" : "2.0"
    },
    "scene" : 0,
    "scenes" : [
        {
            "extras" : {
                "blosm" : {
                    "defaultLevels" : [
                        {
                            "levels" : 4,
                            "weight" : 10
                        },
                        {
                            "levels" : 5,
                            "weight" : 40
                        },
                        {
                            "levels" : 6,
                            "weight" : 10
                        }
                    ]
                },
                "b_renderer" : 1,
                "b_player" : 1,
                "b_settings" : 1,
                "b_interactive" : 1,
                "b_bake_lightmap" : 1,
                "b_export" : 1,
                "s_link" : "https://rwoasis.github.io/VR_In/Index",
                "export_path" : "K:\\Web_VR\\inter",
                "s_project_name" : "te",
                "b_cubemap" : 1,
                "b_cast_shadows" : 1,
                "b_aa" : 1,
                "b_colorManagement" : 1,
                "b_physicallyCorrectLights" : 1,
                "b_raycast" : 1,
                "s_output" : "exporting..."
            },
            "name" : "Scene",
            "nodes" : [
                0
            ]
        }
    ],
    "nodes" : [
        {
            "mesh" : 0,
            "name" : "Plane"
        }
    ],
    "materials" : [
        {
            "doubleSided" : true,
            "name" : "Material.001",
            "pbrMetallicRoughness" : {
                "baseColorFactor" : [
                    0.05571439489722252,
                    0.8000000715255737,
                    0.05759673938155174,
                    1
                ],
                "metallicFactor" : 0,
                "roughnessFactor" : 0.5
            }
        }
    ],
    "meshes" : [
        {
            "name" : "Plane",
            "primitives" : [
                {
                    "attributes" : {
                        "POSITION" : 0,
                        "NORMAL" : 1,
                        "TANGENT" : 2,
                        "TEXCOORD_0" : 3
                    },
                    "indices" : 4,
                    "material" : 0
                }
            ]
        }
    ],
    "accessors" : [
        {
            "bufferView" : 0,
            "componentType" : 5126,
            "count" : 950,
            "max" : [
                25.000469207763672,
                1.538157343864441,
                25.000450134277344
            ],
            "min" : [
                -25.021928787231445,
                -0.42103540897369385,
                -24.999820709228516
            ],
            "type" : "VEC3"
        },
        {
            "bufferView" : 1,
            "componentType" : 5126,
            "count" : 950,
            "type" : "VEC3"
        },
        {
            "bufferView" : 2,
            "componentType" : 5126,
            "count" : 950,
            "type" : "VEC4"
        },
        {
            "bufferView" : 3,
            "componentType" : 5126,
            "count" : 950,
            "type" : "VEC2"
        },
        {
            "bufferView" : 4,
            "componentType" : 5123,
            "count" : 1536,
            "type" : "SCALAR"
        }
    ],
    "bufferViews" : [
        {
            "buffer" : 0,
            "byteLength" : 11400,
            "byteOffset" : 0
        },
        {
            "buffer" : 0,
            "byteLength" : 11400,
            "byteOffset" : 11400
        },
        {
            "buffer" : 0,
            "byteLength" : 15200,
            "byteOffset" : 22800
        },
        {
            "buffer" : 0,
            "byteLength" : 7600,
            "byteOffset" : 38000
        },
        {
            "buffer" : 0,
            "byteLength" : 3072,
            "byteOffset" : 45600
        }
    ],
    "buffers" : [
        {
            "byteLength" : 48672,
            "uri" : "data:application/octet-stream;base64,"
        }
    ]
}
